<svg xmlns="http://www.w3.org/2000/svg" xmlns:xlink="http://www.w3.org/1999/xlink" version="1.1" width="1000" height="1000" viewBox="0 0 1000 1000" xml:space="preserve">
<desc>Created with Fabric.js 3.5.0</desc>
<defs>
</defs>
<rect x="0" y="0" width="100%" height="100%" fill="#ffffff"/>
<g transform="matrix(1.3461 0 0 1.3461 107.0149 16.9609)" id="114219">
<g style="" vector-effect="non-scaling-stroke">
		<g transform="matrix(1 0 0 1 -28.35 0.05)" id="Layer_1-2">
<path style="stroke: none; stroke-width: 1; stroke-dasharray: none; stroke-linecap: butt; stroke-dashoffset: 0; stroke-linejoin: miter; stroke-miterlimit: 4; is-custom-font: none; font-file-url: none; fill: rgb(59,59,59); fill-rule: nonzero; opacity: 1;" transform=" translate(-51.15, -12.65)" d="M 46.7 17.1 l -2.5 7.7 H 41 L 49.2 0.5 H 53 l 8.3 24.3 H 57.9 l -2.6 -7.7 Z m 8 -2.4 l -2.4 -7 L 51 3.3 h 0 L 49.7 7.7 l -2.3 7 Z" stroke-linecap="round"/>
</g>
		<g transform="matrix(1 0 0 1 -7.95 3.65)" id="Layer_1-2">
<path style="stroke: none; stroke-width: 1; stroke-dasharray: none; stroke-linecap: butt; stroke-dashoffset: 0; stroke-linejoin: miter; stroke-miterlimit: 4; is-custom-font: none; font-file-url: none; fill: rgb(59,59,59); fill-rule: nonzero; opacity: 1;" transform=" translate(-71.55, -16.25)" d="M 78.9 20 v 4.8 H 76.2 L 76 21.9 h 0 l -5.8 3.3 l -6 -7.7 V 7.3 h 3.2 V 17 l 3.8 5.5 l 4.2 -2.8 l 0.3 -1.7 V 7.3 h 3.2 Z" stroke-linecap="round"/>
</g>
		<g transform="matrix(1 0 0 1 7.8 1.1)" id="Layer_1-2">
<path style="stroke: none; stroke-width: 1; stroke-dasharray: none; stroke-linecap: butt; stroke-dashoffset: 0; stroke-linejoin: miter; stroke-miterlimit: 4; is-custom-font: none; font-file-url: none; fill: rgb(59,59,59); fill-rule: nonzero; opacity: 1;" transform=" translate(-87.3, -13.7)" d="M 87.9 2.3 v 5 h 4.6 V 9.8 H 87.9 v 9.4 l 2.4 3.3 l 1.9 -0.2 v 2.4 l -2.8 0.4 l -3.4 -1.3 l -1.3 -4.5 V 9.8 H 82.1 V 7.3 h 2.7 V 3.2 Z" stroke-linecap="round"/>
</g>
		<g transform="matrix(1 0 0 1 23.6 3.45)" id="Layer_1-2">
<path style="stroke: none; stroke-width: 1; stroke-dasharray: none; stroke-linecap: butt; stroke-dashoffset: 0; stroke-linejoin: miter; stroke-miterlimit: 4; is-custom-font: none; font-file-url: none; fill: rgb(59,59,59); fill-rule: nonzero; opacity: 1;" transform=" translate(-103.1, -16.05)" d="M 111.6 15.9 l -8.7 9.3 l -8.3 -9 l 8.6 -9.3 Z m -13.8 0.2 l 5.3 6.7 l 5.3 -6.8 l -5.3 -6.7 Z" stroke-linecap="round"/>
</g>
		<g transform="matrix(1 0 0 1 45.25 -0.15)" id="Layer_1-2">
<path style="stroke: none; stroke-width: 1; stroke-dasharray: none; stroke-linecap: butt; stroke-dashoffset: 0; stroke-linejoin: miter; stroke-miterlimit: 4; is-custom-font: none; font-file-url: none; fill: rgb(22,67,186); fill-rule: nonzero; opacity: 1;" transform=" translate(-124.75, -12.45)" d="M 124.5 24.8 h -2.7 l -0.6 -0.5 l -4 -8 L 114 9.1 V 0.8 l 0.4 -0.7 H 121 l 0.4 0.4 l -0.2 4.2 L 121 9.2 l 3.6 7.8 l 2.2 -4.3 l 1.7 -4.2 V 0.3 H 135 l 0.5 0.4 V 8.7 l -3.5 8 L 128 24.3 l -0.3 0.4 h -3.2 Z" stroke-linecap="round"/>
</g>
		<g transform="matrix(1 0 0 1 69.05 -0.15)" id="Layer_1-2">
<path style="stroke: none; stroke-width: 1; stroke-dasharray: none; stroke-linecap: butt; stroke-dashoffset: 0; stroke-linejoin: miter; stroke-miterlimit: 4; is-custom-font: none; font-file-url: none; fill: rgb(22,67,186); fill-rule: nonzero; opacity: 1;" transform=" translate(-148.55, -12.45)" d="M 159 24.6 l -0.3 0.2 h -6.9 l -0.3 -0.4 l -0.8 -2 l -2.1 -5.2 l -1.5 -0.8 h -1.8 l -0.2 0.9 l 0.2 3.5 l 0.2 3.6 l -0.2 0.4 h -6.7 l -0.5 -0.6 l 0.2 -5.8 l 0.2 -5.9 L 138.1 0.9 V 0.7 l 0.6 -0.4 L 144 0.1 h 5.2 l 6.5 1.8 l 2.9 5.9 l -0.7 4.1 l -2.7 3 l -0.5 0.5 l 2.2 4.4 Z M 151.7 8.8 l -1.5 -2.9 l -3.4 -0.7 l -1.7 0.5 v 5.8 l 0.6 0.2 l 2.2 0.2 Z" stroke-linecap="round"/>
</g>
		<g transform="matrix(1 0 0 1 -77.05 1.85)" id="Layer_1-2">
<path style="stroke: none; stroke-width: 1; stroke-dasharray: none; stroke-linecap: butt; stroke-dashoffset: 0; stroke-linejoin: miter; stroke-miterlimit: 4; is-custom-font: none; font-file-url: none; fill: rgb(97,97,97); fill-rule: nonzero; opacity: 1;" transform=" translate(-2.45, -14.45)" d="M 4.4 18.1 H 1.7 A 1.2 1.2 0 0 1 0.5 16.9 V 12 a 1.2 1.2 0 0 1 1.2 -1.2 H 4.4 Z" stroke-linecap="round"/>
</g>
		<g transform="matrix(1 0 0 1 -77.05 1.85)" id="Layer_1-2">
<path style="stroke: none; stroke-width: 1; stroke-dasharray: none; stroke-linecap: butt; stroke-dashoffset: 0; stroke-linejoin: miter; stroke-miterlimit: 4; is-custom-font: none; font-file-url: none; fill: rgb(97,97,97); fill-rule: nonzero; opacity: 1;" transform=" translate(-2.45, -14.45)" d="M 4.9 18.6 H 1.7 A 1.8 1.8 0 0 1 0 16.9 V 12 a 1.7 1.7 0 0 1 1.7 -1.7 H 4.9 Z M 1.7 11.2 a 0.9 0.9 0 0 0 -0.8 0.8 v 4.9 a 0.9 0.9 0 0 0 0.8 0.8 H 3.9 V 11.2 Z" stroke-linecap="round"/>
</g>
		<g transform="matrix(1 0 0 1 -40 1.85)" id="Layer_1-2">
<path style="stroke: none; stroke-width: 1; stroke-dasharray: none; stroke-linecap: butt; stroke-dashoffset: 0; stroke-linejoin: miter; stroke-miterlimit: 4; is-custom-font: none; font-file-url: none; fill: rgb(97,97,97); fill-rule: nonzero; opacity: 1;" transform=" translate(-39.5, -14.45)" d="M 40.2 18.1 H 37.5 V 10.8 h 2.7 A 1.2 1.2 0 0 1 41.5 12 v 4.9 A 1.2 1.2 0 0 1 40.2 18.1 Z" stroke-linecap="round"/>
</g>
		<g transform="matrix(1 0 0 1 -39.9983 1.8484)" id="Layer_1-2">
<path style="stroke: none; stroke-width: 1; stroke-dasharray: none; stroke-linecap: butt; stroke-dashoffset: 0; stroke-linejoin: miter; stroke-miterlimit: 4; is-custom-font: none; font-file-url: none; fill: rgb(97,97,97); fill-rule: nonzero; opacity: 1;" transform=" translate(-39.5017, -14.4483)" d="M 40.2 18.6 H 37.1 V 10.3 h 3.1 A 1.6 1.6 0 0 1 41.9 12 v 4.9 A 1.7 1.7 0 0 1 40.2 18.6 Z M 38 17.7 h 2.2 a 0.8 0.8 0 0 0 0.8 -0.8 V 12 a 0.8 0.8 0 0 0 -0.8 -0.8 H 38 Z" stroke-linecap="round"/>
</g>
		<g transform="matrix(1 0 0 1 -58.55 -9.2521)" id="Layer_1-2">
<path style="stroke: none; stroke-width: 1; stroke-dasharray: none; stroke-linecap: butt; stroke-dashoffset: 0; stroke-linejoin: miter; stroke-miterlimit: 4; is-custom-font: none; font-file-url: none; fill: rgb(97,97,97); fill-rule: nonzero; opacity: 1;" transform=" translate(-20.95, -3.3479)" d="M 23.7 5.5 H 18.2 V 2.4 a 1.2 1.2 0 0 1 1.3 -1.2 h 2.9 a 1.2 1.2 0 0 1 1.3 1.2 V 5.5 Z" stroke-linecap="round"/>
</g>
		<g transform="matrix(1 0 0 1 -58.55 -9.3)" id="Layer_1-2">
<path style="stroke: none; stroke-width: 1; stroke-dasharray: none; stroke-linecap: butt; stroke-dashoffset: 0; stroke-linejoin: miter; stroke-miterlimit: 4; is-custom-font: none; font-file-url: none; fill: rgb(97,97,97); fill-rule: nonzero; opacity: 1;" transform=" translate(-20.95, -3.3)" d="M 24.2 5.9 H 17.7 V 2.4 A 1.8 1.8 0 0 1 19.5 0.7 h 2.9 a 1.8 1.8 0 0 1 1.8 1.7 Z M 18.7 5 h 4.6 V 2.4 a 0.9 0.9 0 0 0 -0.9 -0.8 H 19.5 a 0.8 0.8 0 0 0 -0.8 0.8 Z" stroke-linecap="round"/>
</g>
		<g transform="matrix(1 0 0 1 -58.55 1.8493)" id="Layer_1-2">
<path style="stroke: none; stroke-width: 1; stroke-dasharray: none; stroke-linecap: butt; stroke-dashoffset: 0; stroke-linejoin: miter; stroke-miterlimit: 4; is-custom-font: none; font-file-url: none; fill: rgb(22,67,186); fill-rule: nonzero; opacity: 1;" transform=" translate(-20.95, -14.4493)" d="M 33.8 5.5 H 8.1 A 3.6 3.6 0 0 0 4.4 9.2 V 19.7 a 3.7 3.7 0 0 0 3.7 3.7 h 6.7 a 4.8 4.8 0 0 0 3.5 -1.6 A 3.6 3.6 0 0 1 21 20.6 a 4 4 0 0 1 2.7 1.2 a 4.4 4.4 0 0 0 3.4 1.6 h 6.7 a 3.7 3.7 0 0 0 3.7 -3.7 V 9.2 A 3.6 3.6 0 0 0 33.8 5.5 Z" stroke-linecap="round"/>
</g>
		<g transform="matrix(1 0 0 1 -58.55 1.85)" id="Layer_1-2">
<path style="stroke: none; stroke-width: 1; stroke-dasharray: none; stroke-linecap: butt; stroke-dashoffset: 0; stroke-linejoin: miter; stroke-miterlimit: 4; is-custom-font: none; font-file-url: none; fill: rgb(59,59,59); fill-rule: nonzero; opacity: 1;" transform=" translate(-20.95, -14.45)" d="M 33.8 23.9 H 27.1 a 5.3 5.3 0 0 1 -3.8 -1.8 A 3 3 0 0 0 21 21 a 3.2 3.2 0 0 0 -2.4 1.1 a 5.3 5.3 0 0 1 -3.8 1.8 H 8.1 a 4.2 4.2 0 0 1 -4.2 -4.2 V 9.2 A 4.2 4.2 0 0 1 8.1 5 H 33.8 A 4.2 4.2 0 0 1 38 9.2 V 19.7 A 4.2 4.2 0 0 1 33.8 23.9 Z M 21 20.1 a 4.1 4.1 0 0 1 3 1.4 a 4.1 4.1 0 0 0 3.1 1.4 h 6.7 a 3.2 3.2 0 0 0 3.3 -3.2 V 9.2 a 3.3 3.3 0 0 0 -3.3 -3.3 H 8.1 A 3.2 3.2 0 0 0 4.9 9.2 V 19.7 a 3.2 3.2 0 0 0 3.2 3.2 h 6.7 a 4.1 4.1 0 0 0 3.1 -1.4 A 4.1 4.1 0 0 1 21 20.1 Z" stroke-linecap="round"/>
</g>
		<g transform="matrix(1 0 0 1 -69.886 -2.4)" id="Layer_1-2">
<path style="stroke: none; stroke-width: 1; stroke-dasharray: none; stroke-linecap: butt; stroke-dashoffset: 0; stroke-linejoin: miter; stroke-miterlimit: 4; is-custom-font: none; font-file-url: none; fill: rgb(77,77,77); fill-rule: nonzero; opacity: 1;" transform=" translate(-9.614, -10.2)" d="M 7.8 12.4 H 7.5 a 0.5 0.5 0 0 1 0 -0.7 L 11.1 8 h 0.7 a 0.9 0.9 0 0 1 0 0.7 L 8.2 12.3 Z" stroke-linecap="round"/>
</g>
		<g transform="matrix(1 0 0 1 -65.036 -3.25)" id="Layer_1-2">
<path style="stroke: none; stroke-width: 1; stroke-dasharray: none; stroke-linecap: butt; stroke-dashoffset: 0; stroke-linejoin: miter; stroke-miterlimit: 4; is-custom-font: none; font-file-url: none; fill: rgb(77,77,77); fill-rule: nonzero; opacity: 1;" transform=" translate(-14.464, -9.35)" d="M 13.6 10.6 h -0.3 a 0.5 0.5 0 0 1 0 -0.7 L 15 8.1 h 0.7 a 0.9 0.9 0 0 1 0 0.7 L 14 10.5 Z" stroke-linecap="round"/>
</g>
		<g transform="matrix(1 0 0 1 -69.4714 1.2)" id="Layer_1-2">
<path style="stroke: none; stroke-width: 1; stroke-dasharray: none; stroke-linecap: butt; stroke-dashoffset: 0; stroke-linejoin: miter; stroke-miterlimit: 4; is-custom-font: none; font-file-url: none; fill: rgb(77,77,77); fill-rule: nonzero; opacity: 1;" transform=" translate(-10.0285, -13.8)" d="M 7.9 16.3 H 7.6 a 0.5 0.5 0 0 1 0 -0.7 l 4.1 -4.1 a 0.5 0.5 0 1 1 0.7 0.7 L 8.3 16.2 Z" stroke-linecap="round"/>
</g>
</g>
</g>
</svg>